# xmcd CD database file
#
# Track frame offsets:
#	150
#	15712
#	26600
#	39216
#	50031
#	60673
#	69711
#	82722
#	93947
#	106410
#	115902
#	134222
#	150401
#	161799
#	174155
#	184811
#	194214
#	204666
#	216164
#	225443
#
# Disc length: 3166 seconds
#
# Revision: 0
# Processed by: cddbd v1.5.1PL0 Copyright (c) Steve Scherf et al.
# Submitted via: CDex 1.51
#
DISCID=140c5c14
DTITLE=Various Artist - Stetson Country
DYEAR=2004
DGENRE=Country
TTITLE0=Should've been a cowboy
TTITLE1=hello darlin'
TTITLE2=I fall to pieces
TTITLE3=KING OF THE ROAD
TTITLE4=HELLO WALLS
TTITLE5=KISS AN ANGEL GOOD MORNIN'
TTITLE6=HEY GOOD LOOKING
TTITLE7=CRAZY ARMS
TTITLE8=STILL
TTITLE9=DON'T COME HOME A DRINKIN'
TTITLE10=I BELIEVE IN YOU
TTITLE11=COUNTRY BUMPKIN'
TTITLE12=BEFORE THE NEXT TEARDROP FALLS
TTITLE13=WHITE LIGHTING
TTITLE14=HEAVEN'S JUST A SIN AWAY
TTITLE15=I LOVE
TTITLE16=WALK ON BY
TTITLE17=THERE GOES MY EVERYTHING
TTITLE18=IN THE JAILHOUSE NOW
TTITLE19=YOU CHEATIN' HEART
EXTD=YEAR: 2004
EXTT0=
EXTT1=
EXTT2=
EXTT3=
EXTT4=
EXTT5=
EXTT6=
EXTT7=
EXTT8=
EXTT9=
EXTT10=
EXTT11=
EXTT12=
EXTT13=
EXTT14=
EXTT15=
EXTT16=
EXTT17=
EXTT18=
EXTT19=
PLAYORDER=
